<svg width="24" height="24" viewBox="0 0 24 24" fill="none" xmlns="http://www.w3.org/2000/svg">
<path opacity="0.4" d="M12 22C17.5228 22 22 17.5228 22 12C22 6.47715 17.5228 2 12 2C6.47715 2 2 6.47715 2 12C2 17.5228 6.47715 22 12 22Z" fill="#292D32"/>
<path d="M12 4.25C10.31 4.25 8.70001 4.79 7.35001 5.8C7.02001 6.05 6.95001 6.52001 7.20001 6.85001C7.45001 7.18001 7.92 7.25 8.25 7C9.34 6.18 10.63 5.75 12 5.75C15.45 5.75 18.25 8.55 18.25 12C18.25 15.45 15.45 18.25 12 18.25C8.55 18.25 5.75 15.45 5.75 12C5.75 11.16 5.91999 10.33 6.23999 9.56L7.38 10.21C7.16 10.78 7.04001 11.38 7.04001 12C7.04001 14.73 9.25999 16.95 11.99 16.95C14.72 16.95 16.94 14.73 16.94 12C16.94 9.27 14.72 7.05 11.99 7.05C11.25 7.05 10.54 7.21 9.88 7.52C9.51 7.7 9.33999 8.14 9.51999 8.52C9.69999 8.89 10.14 9.05 10.52 8.88C10.98 8.66001 11.47 8.55 11.99 8.55C13.89 8.55 15.44 10.1 15.44 12C15.44 13.9 13.89 15.45 11.99 15.45C10.09 15.45 8.54001 13.9 8.54001 12C8.54001 11.65 8.60999 11.31 8.70999 10.98L11.62 12.65C11.98 12.86 12.44 12.73 12.64 12.37C12.85 12.01 12.72 11.55 12.36 11.35L6.29001 7.86C5.93001 7.65 5.46999 7.78 5.26999 8.14C4.59999 9.31 4.23999 10.64 4.23999 12C4.23999 16.27 7.71999 19.75 11.99 19.75C16.26 19.75 19.74 16.27 19.74 12C19.74 7.73 16.27 4.25 12 4.25Z" fill="#292D32"/>
</svg>
