<svg width="24" height="24" viewBox="0 0 24 24" fill="none" xmlns="http://www.w3.org/2000/svg">
<path d="M16.0098 20.97C16.0154 21.5261 15.5661 21.98 15.0099 21.98H8.99325C8.44357 21.98 7.99695 21.5364 7.99327 20.9867L7.97998 19C7.97998 17.9 8.86998 17 9.97998 17H13.99C15.09 17 15.98 17.89 15.99 18.99L16.0098 20.97Z" fill="#292D32"/>
<path d="M18.5 10.0001V12.1701C18.5 12.7001 18.71 13.2101 19.09 13.5901L19.91 14.4101C20.29 14.7901 20.5 15.3001 20.5 15.8301V17.0001C20.5 19.3013 19.5911 20.9937 17.6057 21.6663C17.3045 21.7683 17.0089 21.5305 17.0078 21.2124L17 18.9801C16.98 17.3401 15.63 16.0001 14 16.0001H9.99C8.33 16.0001 6.99 17.3501 6.99 19.0001V21.2243C6.99 21.5417 6.69629 21.7805 6.3949 21.6808C4.386 21.016 3.5 19.3132 3.5 17.0001V7.00011C3.5 4.59407 4.45179 2.83389 6.64523 2.23662C6.94579 2.15478 7.2259 2.39633 7.22143 2.70779L7.19 4.90011C7.18 5.37011 7.35 5.82011 7.67 6.16011C8 6.50011 8.43 6.69011 8.94 6.70011C9.45417 6.70011 9.91203 6.48736 10.2245 6.14105C10.3367 6.01668 10.5516 6.01166 10.67 6.13011C10.99 6.47011 11.43 6.67011 11.94 6.68011C12.4543 6.68011 12.9235 6.45405 13.2436 6.09018C13.3488 5.97061 13.5642 5.96108 13.67 6.08011C13.99 6.42011 14.43 6.62011 14.94 6.63011C15.9 6.63011 16.67 5.88011 16.69 4.91011L16.7297 2.68676C16.7351 2.38245 17.0106 2.15148 17.3047 2.22966C19.5087 2.81543 20.5 4.58729 20.5 7.00011V8.00011C20.5 8.55011 20.05 9.00011 19.5 9.00011C18.95 9.00011 18.5 9.45011 18.5 10.0001Z" fill="#292D32"/>
<path d="M9.22836 2.0033C9.50907 2.00149 9.73626 2.23107 9.73152 2.51174L9.69016 4.96C9.68016 5.37 9.35016 5.7 8.94016 5.7H8.93016C8.51016 5.69 8.18016 5.35 8.19016 4.93V2.50678C8.19016 2.2319 8.41206 2.00857 8.68694 2.00679L9.22836 2.0033Z" fill="#292D32"/>
<path d="M12.2316 2C12.5111 2 12.7363 2.22906 12.7315 2.50847L12.6902 4.95C12.6802 5.35 12.3502 5.68 11.9402 5.68H11.9302C11.5102 5.67 11.1802 5.33 11.1902 4.92L11.1902 2.5C11.1902 2.22386 11.414 2 11.6902 2H12.2316Z" fill="#292D32"/>
<path d="M15.2346 2.00682C15.5129 2.00858 15.7362 2.23723 15.7314 2.51549L15.6902 4.89001C15.6802 5.30001 15.3502 5.63001 14.9402 5.63001H14.9302C14.5102 5.62001 14.1802 5.28001 14.1902 4.87001V2.5034C14.1902 2.22603 14.4159 2.00167 14.6933 2.00341L15.2346 2.00682Z" fill="#292D32"/>
</svg>
