<svg width="24" height="24" viewBox="0 0 24 24" fill="none" xmlns="http://www.w3.org/2000/svg">
<path d="M5.20043 10.4601C5.01043 10.4601 4.81043 10.3801 4.67043 10.2401C4.46043 10.0201 4.39043 9.70012 4.51043 9.42012L6.37043 4.98012C6.41043 4.89012 6.43043 4.83012 6.46043 4.78012C7.94043 1.37012 9.83043 0.540121 13.1704 1.82012C13.3604 1.89012 13.5104 2.04012 13.5904 2.23012C13.6704 2.42012 13.6704 2.63012 13.5904 2.82012L10.6604 9.62012C10.5404 9.90012 10.2704 10.0701 9.97043 10.0701H7.12043C6.55043 10.0701 6.01043 10.1801 5.49043 10.4001C5.40043 10.4401 5.30043 10.4601 5.20043 10.4601ZM10.6104 2.75012C9.37043 2.75012 8.61043 3.56012 7.82043 5.40012C7.81043 5.43012 7.79043 5.46012 7.78043 5.49012L6.47043 8.60012C6.69043 8.58012 6.90043 8.57012 7.12043 8.57012H9.47043L11.8804 2.97012C11.4104 2.82012 10.9904 2.75012 10.6104 2.75012Z" fill="#292D32"/>
<path d="M18.2905 10.27C18.2205 10.27 18.1405 10.26 18.0705 10.24C17.6905 10.13 17.2905 10.07 16.8705 10.07H9.97047C9.72047 10.07 9.48047 9.93999 9.34047 9.72999C9.21047 9.51999 9.18047 9.24999 9.28047 9.01999L12.1805 2.28999C12.3305 1.92999 12.7705 1.67999 13.1405 1.80999C13.2605 1.84999 13.3705 1.89999 13.4905 1.94999L15.8505 2.93999C17.2305 3.50999 18.1505 4.10999 18.7505 4.82999C18.8705 4.96999 18.9705 5.11999 19.0705 5.27999C19.1805 5.44999 19.2805 5.64999 19.3505 5.85999C19.3805 5.92999 19.4305 6.05999 19.4605 6.19999C19.7405 7.14999 19.6005 8.30999 19.0005 9.80999C18.8705 10.09 18.5905 10.27 18.2905 10.27ZM11.1105 8.56999H16.8805C17.2005 8.56999 17.5105 8.59999 17.8205 8.64999C18.1005 7.77999 18.1605 7.10999 18.0005 6.56999C17.9805 6.47999 17.9605 6.43999 17.9505 6.39999C17.8905 6.23999 17.8505 6.14999 17.8005 6.06999C17.7305 5.95999 17.6805 5.86999 17.6005 5.77999C17.1705 5.25999 16.4105 4.77999 15.2705 4.30999L13.3005 3.48999L11.1105 8.56999Z" fill="#292D32"/>
<path d="M15.9005 22.7501H8.10049C7.82049 22.7501 7.56049 22.7301 7.30049 22.7001C3.79049 22.4701 1.79049 20.4601 1.55049 16.9101C1.52049 16.6901 1.50049 16.4201 1.50049 16.1501V14.2001C1.50049 11.9501 2.84049 9.92007 4.91049 9.02007C5.62049 8.72007 6.36049 8.57007 7.13049 8.57007H16.8905C17.4605 8.57007 18.0105 8.65007 18.5205 8.81007C20.8705 9.52007 22.5205 11.7401 22.5205 14.2001V16.1501C22.5205 16.3701 22.5105 16.5801 22.5005 16.7801C22.2805 20.6901 20.0005 22.7501 15.9005 22.7501ZM7.12049 10.0701C6.55049 10.0701 6.01049 10.1801 5.49049 10.4001C3.97049 11.0601 2.99049 12.5501 2.99049 14.2001V16.1501C2.99049 16.3601 3.01049 16.5701 3.03049 16.7701C3.22049 19.6201 4.62049 21.0201 7.43049 21.2101C7.68049 21.2401 7.88049 21.2601 8.09049 21.2601H15.8905C19.1905 21.2601 20.8105 19.8101 20.9705 16.7101C20.9805 16.5301 20.9905 16.3501 20.9905 16.1501V14.2001C20.9905 12.3901 19.7805 10.7701 18.0605 10.2401C17.6805 10.1301 17.2805 10.0701 16.8605 10.0701H7.12049Z" fill="#292D32"/>
<path d="M2.24048 14.95C1.83048 14.95 1.49048 14.61 1.49048 14.2V11.27C1.49048 8.12005 3.72048 5.40005 6.80048 4.80005C7.07048 4.75005 7.35048 4.85004 7.53048 5.06004C7.70048 5.27004 7.75048 5.57005 7.64048 5.82005L5.89048 10C5.81048 10.18 5.67048 10.32 5.50048 10.4C3.98048 11.06 3.00048 12.55 3.00048 14.2C2.99048 14.61 2.66048 14.95 2.24048 14.95ZM5.60048 6.82005C4.32048 7.54005 3.39048 8.80005 3.10048 10.27C3.54048 9.82005 4.05048 9.44004 4.63048 9.16004L5.60048 6.82005Z" fill="#292D32"/>
<path d="M21.7605 14.95C21.3505 14.95 21.0105 14.61 21.0105 14.2C21.0105 12.39 19.8005 10.77 18.0805 10.24C17.8805 10.18 17.7105 10.04 17.6205 9.85002C17.5305 9.66002 17.5205 9.44002 17.6005 9.25002C18.0705 8.08002 18.1905 7.23002 18.0005 6.57002C17.9805 6.48002 17.9605 6.44002 17.9505 6.40002C17.8205 6.11002 17.8905 5.77002 18.1205 5.55002C18.3505 5.33002 18.7005 5.28002 18.9805 5.43002C21.1605 6.57002 22.5105 8.81002 22.5105 11.27V14.2C22.5105 14.61 22.1705 14.95 21.7605 14.95ZM19.2505 9.09002C19.8805 9.38002 20.4405 9.79002 20.9105 10.28C20.7205 9.30002 20.2505 8.41002 19.5605 7.71002C19.5105 8.13002 19.4105 8.59002 19.2505 9.09002Z" fill="#292D32"/>
</svg>
